<mxfile host="app.diagrams.net" agent="Mozilla/5.0 (Windows NT 10.0; Win64; x64) AppleWebKit/537.36 (KHTML, like Gecko) Chrome/134.0.0.0 Safari/537.36" version="26.1.1">
  <diagram name="Sequence Diagram" id="ih1pJ9GeW4IVYbwsGWdL">
    <mxGraphModel dx="1204" dy="806" grid="1" gridSize="10" guides="1" tooltips="1" connect="1" arrows="1" fold="1" page="1" pageScale="1" pageWidth="850" pageHeight="1100" math="0" shadow="0">
      <root>
        <mxCell id="0" />
        <mxCell id="1" parent="0" />
        <mxCell id="CCOBThH8I8G8qzhQmVKX-13" value="Game" style="shape=umlLifeline;perimeter=lifelinePerimeter;whiteSpace=wrap;html=1;container=1;dropTarget=0;collapsible=0;recursiveResize=0;outlineConnect=0;portConstraint=eastwest;newEdgeStyle={&quot;edgeStyle&quot;:&quot;elbowEdgeStyle&quot;,&quot;elbow&quot;:&quot;vertical&quot;,&quot;curved&quot;:0,&quot;rounded&quot;:0};" vertex="1" parent="1">
          <mxGeometry x="325" y="120" width="100" height="680" as="geometry" />
        </mxCell>
        <mxCell id="CCOBThH8I8G8qzhQmVKX-14" value="" style="html=1;points=[[0,0,0,0,5],[0,1,0,0,-5],[1,0,0,0,5],[1,1,0,0,-5]];perimeter=orthogonalPerimeter;outlineConnect=0;targetShapes=umlLifeline;portConstraint=eastwest;newEdgeStyle={&quot;curved&quot;:0,&quot;rounded&quot;:0};fillColor=#808080;" vertex="1" parent="CCOBThH8I8G8qzhQmVKX-13">
          <mxGeometry x="45" y="90" width="10" height="50" as="geometry" />
        </mxCell>
        <mxCell id="CCOBThH8I8G8qzhQmVKX-24" value="" style="html=1;points=[[0,0,0,0,5],[0,1,0,0,-5],[1,0,0,0,5],[1,1,0,0,-5]];perimeter=orthogonalPerimeter;outlineConnect=0;targetShapes=umlLifeline;portConstraint=eastwest;newEdgeStyle={&quot;curved&quot;:0,&quot;rounded&quot;:0};fillColor=#808080;" vertex="1" parent="CCOBThH8I8G8qzhQmVKX-13">
          <mxGeometry x="45" y="170" width="10" height="250" as="geometry" />
        </mxCell>
        <mxCell id="CCOBThH8I8G8qzhQmVKX-47" value="" style="html=1;points=[[0,0,0,0,5],[0,1,0,0,-5],[1,0,0,0,5],[1,1,0,0,-5]];perimeter=orthogonalPerimeter;outlineConnect=0;targetShapes=umlLifeline;portConstraint=eastwest;newEdgeStyle={&quot;curved&quot;:0,&quot;rounded&quot;:0};fillColor=#808080;" vertex="1" parent="CCOBThH8I8G8qzhQmVKX-13">
          <mxGeometry x="45" y="460" width="10" height="50" as="geometry" />
        </mxCell>
        <mxCell id="CCOBThH8I8G8qzhQmVKX-51" style="edgeStyle=orthogonalEdgeStyle;rounded=0;orthogonalLoop=1;jettySize=auto;html=1;curved=0;entryX=1;entryY=0;entryDx=0;entryDy=5;entryPerimeter=0;" edge="1" parent="CCOBThH8I8G8qzhQmVKX-13" source="CCOBThH8I8G8qzhQmVKX-47" target="CCOBThH8I8G8qzhQmVKX-24">
          <mxGeometry relative="1" as="geometry">
            <Array as="points">
              <mxPoint x="215" y="485" />
              <mxPoint x="215" y="175" />
            </Array>
          </mxGeometry>
        </mxCell>
        <mxCell id="CCOBThH8I8G8qzhQmVKX-54" value="" style="html=1;points=[[0,0,0,0,5],[0,1,0,0,-5],[1,0,0,0,5],[1,1,0,0,-5]];perimeter=orthogonalPerimeter;outlineConnect=0;targetShapes=umlLifeline;portConstraint=eastwest;newEdgeStyle={&quot;curved&quot;:0,&quot;rounded&quot;:0};fillColor=#808080;" vertex="1" parent="CCOBThH8I8G8qzhQmVKX-13">
          <mxGeometry x="45" y="550" width="10" height="50" as="geometry" />
        </mxCell>
        <mxCell id="CCOBThH8I8G8qzhQmVKX-59" value="" style="html=1;points=[[0,0,0,0,5],[0,1,0,0,-5],[1,0,0,0,5],[1,1,0,0,-5]];perimeter=orthogonalPerimeter;outlineConnect=0;targetShapes=umlLifeline;portConstraint=eastwest;newEdgeStyle={&quot;curved&quot;:0,&quot;rounded&quot;:0};fillColor=#808080;" vertex="1" parent="CCOBThH8I8G8qzhQmVKX-13">
          <mxGeometry x="45" y="640" width="10" height="20" as="geometry" />
        </mxCell>
        <mxCell id="CCOBThH8I8G8qzhQmVKX-15" value="Player" style="shape=umlLifeline;perimeter=lifelinePerimeter;whiteSpace=wrap;html=1;container=1;dropTarget=0;collapsible=0;recursiveResize=0;outlineConnect=0;portConstraint=eastwest;newEdgeStyle={&quot;edgeStyle&quot;:&quot;elbowEdgeStyle&quot;,&quot;elbow&quot;:&quot;vertical&quot;,&quot;curved&quot;:0,&quot;rounded&quot;:0};" vertex="1" parent="1">
          <mxGeometry x="130" y="120" width="100" height="680" as="geometry" />
        </mxCell>
        <mxCell id="CCOBThH8I8G8qzhQmVKX-16" value="" style="html=1;points=[[0,0,0,0,5],[0,1,0,0,-5],[1,0,0,0,5],[1,1,0,0,-5]];perimeter=orthogonalPerimeter;outlineConnect=0;targetShapes=umlLifeline;portConstraint=eastwest;newEdgeStyle={&quot;curved&quot;:0,&quot;rounded&quot;:0};" vertex="1" parent="CCOBThH8I8G8qzhQmVKX-15">
          <mxGeometry x="45" y="90" width="10" height="50" as="geometry" />
        </mxCell>
        <mxCell id="CCOBThH8I8G8qzhQmVKX-36" value="" style="html=1;points=[[0,0,0,0,5],[0,1,0,0,-5],[1,0,0,0,5],[1,1,0,0,-5]];perimeter=orthogonalPerimeter;outlineConnect=0;targetShapes=umlLifeline;portConstraint=eastwest;newEdgeStyle={&quot;curved&quot;:0,&quot;rounded&quot;:0};" vertex="1" parent="CCOBThH8I8G8qzhQmVKX-15">
          <mxGeometry x="45" y="170" width="10" height="250" as="geometry" />
        </mxCell>
        <mxCell id="CCOBThH8I8G8qzhQmVKX-46" value="" style="html=1;points=[[0,0,0,0,5],[0,1,0,0,-5],[1,0,0,0,5],[1,1,0,0,-5]];perimeter=orthogonalPerimeter;outlineConnect=0;targetShapes=umlLifeline;portConstraint=eastwest;newEdgeStyle={&quot;curved&quot;:0,&quot;rounded&quot;:0};" vertex="1" parent="CCOBThH8I8G8qzhQmVKX-15">
          <mxGeometry x="45" y="460" width="10" height="50" as="geometry" />
        </mxCell>
        <mxCell id="CCOBThH8I8G8qzhQmVKX-53" value="" style="html=1;points=[[0,0,0,0,5],[0,1,0,0,-5],[1,0,0,0,5],[1,1,0,0,-5]];perimeter=orthogonalPerimeter;outlineConnect=0;targetShapes=umlLifeline;portConstraint=eastwest;newEdgeStyle={&quot;curved&quot;:0,&quot;rounded&quot;:0};" vertex="1" parent="CCOBThH8I8G8qzhQmVKX-15">
          <mxGeometry x="45" y="550" width="10" height="50" as="geometry" />
        </mxCell>
        <mxCell id="CCOBThH8I8G8qzhQmVKX-62" value="" style="html=1;points=[[0,0,0,0,5],[0,1,0,0,-5],[1,0,0,0,5],[1,1,0,0,-5]];perimeter=orthogonalPerimeter;outlineConnect=0;targetShapes=umlLifeline;portConstraint=eastwest;newEdgeStyle={&quot;curved&quot;:0,&quot;rounded&quot;:0};" vertex="1" parent="CCOBThH8I8G8qzhQmVKX-15">
          <mxGeometry x="45" y="640" width="10" height="20" as="geometry" />
        </mxCell>
        <mxCell id="CCOBThH8I8G8qzhQmVKX-17" value="Leaderboard" style="shape=umlLifeline;perimeter=lifelinePerimeter;whiteSpace=wrap;html=1;container=1;dropTarget=0;collapsible=0;recursiveResize=0;outlineConnect=0;portConstraint=eastwest;newEdgeStyle={&quot;edgeStyle&quot;:&quot;elbowEdgeStyle&quot;,&quot;elbow&quot;:&quot;vertical&quot;,&quot;curved&quot;:0,&quot;rounded&quot;:0};" vertex="1" parent="1">
          <mxGeometry x="580" y="120" width="100" height="680" as="geometry" />
        </mxCell>
        <mxCell id="CCOBThH8I8G8qzhQmVKX-18" value="" style="html=1;points=[[0,0,0,0,5],[0,1,0,0,-5],[1,0,0,0,5],[1,1,0,0,-5]];perimeter=orthogonalPerimeter;outlineConnect=0;targetShapes=umlLifeline;portConstraint=eastwest;newEdgeStyle={&quot;curved&quot;:0,&quot;rounded&quot;:0};fillColor=#808080;" vertex="1" parent="CCOBThH8I8G8qzhQmVKX-17">
          <mxGeometry x="45" y="590" width="10" height="60" as="geometry" />
        </mxCell>
        <mxCell id="CCOBThH8I8G8qzhQmVKX-19" style="edgeStyle=orthogonalEdgeStyle;rounded=0;orthogonalLoop=1;jettySize=auto;html=1;curved=0;exitX=1;exitY=0;exitDx=0;exitDy=5;exitPerimeter=0;entryX=0;entryY=0;entryDx=0;entryDy=5;entryPerimeter=0;" edge="1" parent="1" source="CCOBThH8I8G8qzhQmVKX-16" target="CCOBThH8I8G8qzhQmVKX-14">
          <mxGeometry relative="1" as="geometry" />
        </mxCell>
        <mxCell id="CCOBThH8I8G8qzhQmVKX-20" value="1. Start Game" style="text;html=1;align=center;verticalAlign=middle;whiteSpace=wrap;rounded=0;" vertex="1" parent="1">
          <mxGeometry x="200" y="210" width="90" height="30" as="geometry" />
        </mxCell>
        <mxCell id="CCOBThH8I8G8qzhQmVKX-28" value="&lt;span style=&quot;font-family: Helvetica; text-wrap-mode: wrap;&quot;&gt;2. Initialize game&lt;/span&gt;" style="html=1;verticalAlign=bottom;endArrow=block;labelBackgroundColor=none;fontFamily=Verdana;fontSize=12;elbow=vertical;edgeStyle=orthogonalEdgeStyle;curved=1;entryX=1;entryY=0.286;entryPerimeter=0;exitX=1.038;exitY=0.345;exitPerimeter=0;" edge="1" parent="1">
          <mxGeometry x="0.007" relative="1" as="geometry">
            <mxPoint x="380" y="210" as="sourcePoint" />
            <mxPoint x="385" y="248" as="targetPoint" />
            <Array as="points">
              <mxPoint x="435" y="210" />
              <mxPoint x="435" y="248" />
            </Array>
            <mxPoint as="offset" />
          </mxGeometry>
        </mxCell>
        <mxCell id="CCOBThH8I8G8qzhQmVKX-29" value="&lt;span style=&quot;font-family: Helvetica; text-wrap-mode: wrap;&quot;&gt;3. Initialize timer&lt;/span&gt;" style="html=1;verticalAlign=bottom;endArrow=block;labelBackgroundColor=none;fontFamily=Verdana;fontSize=12;elbow=vertical;edgeStyle=orthogonalEdgeStyle;curved=1;entryX=1;entryY=0.286;entryPerimeter=0;exitX=1.038;exitY=0.345;exitPerimeter=0;" edge="1" parent="1">
          <mxGeometry x="0.0102" relative="1" as="geometry">
            <mxPoint x="380" y="290" as="sourcePoint" />
            <mxPoint x="385" y="328" as="targetPoint" />
            <Array as="points">
              <mxPoint x="440" y="290" />
              <mxPoint x="440" y="328" />
            </Array>
            <mxPoint as="offset" />
          </mxGeometry>
        </mxCell>
        <mxCell id="CCOBThH8I8G8qzhQmVKX-32" value="&lt;span style=&quot;font-family: Helvetica; text-wrap-mode: wrap;&quot;&gt;4. Phase initialization&lt;/span&gt;" style="html=1;verticalAlign=bottom;endArrow=block;labelBackgroundColor=none;fontFamily=Verdana;fontSize=12;elbow=vertical;edgeStyle=orthogonalEdgeStyle;curved=1;entryX=1;entryY=0.286;entryPerimeter=0;exitX=1.038;exitY=0.345;exitPerimeter=0;" edge="1" parent="1">
          <mxGeometry x="0.0065" relative="1" as="geometry">
            <mxPoint x="380" y="350" as="sourcePoint" />
            <mxPoint x="385" y="388" as="targetPoint" />
            <Array as="points">
              <mxPoint x="440" y="350" />
              <mxPoint x="440" y="388" />
            </Array>
            <mxPoint as="offset" />
          </mxGeometry>
        </mxCell>
        <mxCell id="CCOBThH8I8G8qzhQmVKX-34" value="&lt;span style=&quot;font-family: Helvetica; text-wrap-mode: wrap;&quot;&gt;5. Spawn enemies&lt;/span&gt;" style="html=1;verticalAlign=bottom;endArrow=block;labelBackgroundColor=none;fontFamily=Verdana;fontSize=12;elbow=vertical;edgeStyle=orthogonalEdgeStyle;curved=1;entryX=1;entryY=0.286;entryPerimeter=0;exitX=1.038;exitY=0.345;exitPerimeter=0;" edge="1" parent="1">
          <mxGeometry x="0.0102" relative="1" as="geometry">
            <mxPoint x="380" y="416" as="sourcePoint" />
            <mxPoint x="385" y="454" as="targetPoint" />
            <Array as="points">
              <mxPoint x="440" y="416" />
              <mxPoint x="440" y="454" />
            </Array>
            <mxPoint as="offset" />
          </mxGeometry>
        </mxCell>
        <mxCell id="CCOBThH8I8G8qzhQmVKX-35" value="&lt;span style=&quot;font-family: Helvetica; text-wrap-mode: wrap;&quot;&gt;6. Spawn weapon&lt;/span&gt;" style="html=1;verticalAlign=bottom;endArrow=block;labelBackgroundColor=none;fontFamily=Verdana;fontSize=12;elbow=vertical;edgeStyle=orthogonalEdgeStyle;curved=1;entryX=1;entryY=0.286;entryPerimeter=0;exitX=1.038;exitY=0.345;exitPerimeter=0;" edge="1" parent="1">
          <mxGeometry x="0.0065" relative="1" as="geometry">
            <mxPoint x="380" y="480" as="sourcePoint" />
            <mxPoint x="385" y="518" as="targetPoint" />
            <Array as="points">
              <mxPoint x="440" y="480" />
              <mxPoint x="440" y="518" />
            </Array>
            <mxPoint as="offset" />
          </mxGeometry>
        </mxCell>
        <mxCell id="CCOBThH8I8G8qzhQmVKX-38" style="edgeStyle=orthogonalEdgeStyle;rounded=0;orthogonalLoop=1;jettySize=auto;html=1;curved=0;exitX=1;exitY=0;exitDx=0;exitDy=5;exitPerimeter=0;entryX=0;entryY=0;entryDx=0;entryDy=5;entryPerimeter=0;" edge="1" parent="1" source="CCOBThH8I8G8qzhQmVKX-36" target="CCOBThH8I8G8qzhQmVKX-24">
          <mxGeometry relative="1" as="geometry" />
        </mxCell>
        <mxCell id="CCOBThH8I8G8qzhQmVKX-39" value="a. Move the avatars" style="text;html=1;align=center;verticalAlign=middle;whiteSpace=wrap;rounded=0;" vertex="1" parent="1">
          <mxGeometry x="200" y="300" width="90" height="30" as="geometry" />
        </mxCell>
        <mxCell id="CCOBThH8I8G8qzhQmVKX-41" value="" style="endArrow=classic;html=1;rounded=0;" edge="1" parent="1" source="CCOBThH8I8G8qzhQmVKX-36" target="CCOBThH8I8G8qzhQmVKX-13">
          <mxGeometry width="50" height="50" relative="1" as="geometry">
            <mxPoint x="190" y="360" as="sourcePoint" />
            <mxPoint x="240" y="310" as="targetPoint" />
          </mxGeometry>
        </mxCell>
        <mxCell id="CCOBThH8I8G8qzhQmVKX-42" value="b. Shoot enemies" style="text;html=1;align=center;verticalAlign=middle;whiteSpace=wrap;rounded=0;" vertex="1" parent="1">
          <mxGeometry x="210" y="420" width="90" height="30" as="geometry" />
        </mxCell>
        <mxCell id="CCOBThH8I8G8qzhQmVKX-44" style="edgeStyle=orthogonalEdgeStyle;rounded=0;orthogonalLoop=1;jettySize=auto;html=1;curved=0;exitX=0;exitY=1;exitDx=0;exitDy=-5;exitPerimeter=0;entryX=1;entryY=1;entryDx=0;entryDy=-5;entryPerimeter=0;" edge="1" parent="1" source="CCOBThH8I8G8qzhQmVKX-24" target="CCOBThH8I8G8qzhQmVKX-36">
          <mxGeometry relative="1" as="geometry" />
        </mxCell>
        <mxCell id="CCOBThH8I8G8qzhQmVKX-45" value="c. is the player alive?" style="text;html=1;align=center;verticalAlign=middle;whiteSpace=wrap;rounded=0;" vertex="1" parent="1">
          <mxGeometry x="210" y="500" width="90" height="30" as="geometry" />
        </mxCell>
        <mxCell id="CCOBThH8I8G8qzhQmVKX-48" style="edgeStyle=orthogonalEdgeStyle;rounded=0;orthogonalLoop=1;jettySize=auto;html=1;curved=0;exitX=1;exitY=0;exitDx=0;exitDy=5;exitPerimeter=0;entryX=0;entryY=0;entryDx=0;entryDy=5;entryPerimeter=0;" edge="1" parent="1" source="CCOBThH8I8G8qzhQmVKX-46" target="CCOBThH8I8G8qzhQmVKX-47">
          <mxGeometry relative="1" as="geometry" />
        </mxCell>
        <mxCell id="CCOBThH8I8G8qzhQmVKX-49" value="(if)&amp;nbsp; d.alive" style="text;html=1;align=center;verticalAlign=middle;whiteSpace=wrap;rounded=0;" vertex="1" parent="1">
          <mxGeometry x="200" y="580" width="90" height="30" as="geometry" />
        </mxCell>
        <mxCell id="CCOBThH8I8G8qzhQmVKX-52" value="Phase + 1" style="text;html=1;align=center;verticalAlign=middle;whiteSpace=wrap;rounded=0;" vertex="1" parent="1">
          <mxGeometry x="530" y="420" width="90" height="30" as="geometry" />
        </mxCell>
        <mxCell id="CCOBThH8I8G8qzhQmVKX-55" style="edgeStyle=orthogonalEdgeStyle;rounded=0;orthogonalLoop=1;jettySize=auto;html=1;curved=0;exitX=1;exitY=0;exitDx=0;exitDy=5;exitPerimeter=0;entryX=0;entryY=0;entryDx=0;entryDy=5;entryPerimeter=0;" edge="1" parent="1" source="CCOBThH8I8G8qzhQmVKX-53" target="CCOBThH8I8G8qzhQmVKX-54">
          <mxGeometry relative="1" as="geometry" />
        </mxCell>
        <mxCell id="CCOBThH8I8G8qzhQmVKX-56" value="(if) e. dead" style="text;html=1;align=center;verticalAlign=middle;whiteSpace=wrap;rounded=0;" vertex="1" parent="1">
          <mxGeometry x="200" y="670" width="90" height="30" as="geometry" />
        </mxCell>
        <mxCell id="CCOBThH8I8G8qzhQmVKX-58" style="edgeStyle=orthogonalEdgeStyle;rounded=0;orthogonalLoop=1;jettySize=auto;html=1;curved=0;exitX=1;exitY=1;exitDx=0;exitDy=-5;exitPerimeter=0;entryX=0;entryY=0;entryDx=0;entryDy=5;entryPerimeter=0;" edge="1" parent="1" source="CCOBThH8I8G8qzhQmVKX-54" target="CCOBThH8I8G8qzhQmVKX-18">
          <mxGeometry relative="1" as="geometry" />
        </mxCell>
        <mxCell id="CCOBThH8I8G8qzhQmVKX-60" style="edgeStyle=orthogonalEdgeStyle;rounded=0;orthogonalLoop=1;jettySize=auto;html=1;curved=0;exitX=0;exitY=1;exitDx=0;exitDy=-5;exitPerimeter=0;entryX=1;entryY=0;entryDx=0;entryDy=5;entryPerimeter=0;" edge="1" parent="1" source="CCOBThH8I8G8qzhQmVKX-18" target="CCOBThH8I8G8qzhQmVKX-59">
          <mxGeometry relative="1" as="geometry" />
        </mxCell>
        <mxCell id="CCOBThH8I8G8qzhQmVKX-61" value="7. end game" style="text;html=1;align=center;verticalAlign=middle;whiteSpace=wrap;rounded=0;" vertex="1" parent="1">
          <mxGeometry x="460" y="680" width="60" height="30" as="geometry" />
        </mxCell>
        <mxCell id="CCOBThH8I8G8qzhQmVKX-63" value="&lt;span style=&quot;font-family: Helvetica; text-wrap-mode: wrap;&quot;&gt;8. Save scores&lt;/span&gt;" style="html=1;verticalAlign=bottom;endArrow=block;labelBackgroundColor=none;fontFamily=Verdana;fontSize=12;elbow=vertical;edgeStyle=orthogonalEdgeStyle;curved=1;entryX=1;entryY=0.286;entryPerimeter=0;exitX=1.038;exitY=0.345;exitPerimeter=0;" edge="1" parent="1">
          <mxGeometry x="0.0065" relative="1" as="geometry">
            <mxPoint x="640" y="720" as="sourcePoint" />
            <mxPoint x="645" y="758" as="targetPoint" />
            <Array as="points">
              <mxPoint x="700" y="720" />
              <mxPoint x="700" y="758" />
            </Array>
            <mxPoint as="offset" />
          </mxGeometry>
        </mxCell>
        <mxCell id="CCOBThH8I8G8qzhQmVKX-64" value="9. return leaderboard" style="text;html=1;align=center;verticalAlign=middle;whiteSpace=wrap;rounded=0;" vertex="1" parent="1">
          <mxGeometry x="460" y="770" width="60" height="30" as="geometry" />
        </mxCell>
        <mxCell id="CCOBThH8I8G8qzhQmVKX-65" style="edgeStyle=orthogonalEdgeStyle;rounded=0;orthogonalLoop=1;jettySize=auto;html=1;curved=0;exitX=0;exitY=1;exitDx=0;exitDy=-5;exitPerimeter=0;entryX=1;entryY=1;entryDx=0;entryDy=-5;entryPerimeter=0;" edge="1" parent="1" source="CCOBThH8I8G8qzhQmVKX-59" target="CCOBThH8I8G8qzhQmVKX-62">
          <mxGeometry relative="1" as="geometry" />
        </mxCell>
        <mxCell id="CCOBThH8I8G8qzhQmVKX-66" style="edgeStyle=orthogonalEdgeStyle;rounded=0;orthogonalLoop=1;jettySize=auto;html=1;curved=0;exitX=0;exitY=1;exitDx=0;exitDy=-5;exitPerimeter=0;entryX=1;entryY=1;entryDx=0;entryDy=-5;entryPerimeter=0;" edge="1" parent="1" source="CCOBThH8I8G8qzhQmVKX-14" target="CCOBThH8I8G8qzhQmVKX-16">
          <mxGeometry relative="1" as="geometry" />
        </mxCell>
        <mxCell id="CCOBThH8I8G8qzhQmVKX-67" value="a. Display Game" style="text;html=1;align=center;verticalAlign=middle;whiteSpace=wrap;rounded=0;" vertex="1" parent="1">
          <mxGeometry x="200" y="260" width="90" height="30" as="geometry" />
        </mxCell>
        <mxCell id="CCOBThH8I8G8qzhQmVKX-68" value="f. Display Leaderboard" style="text;html=1;align=center;verticalAlign=middle;whiteSpace=wrap;rounded=0;" vertex="1" parent="1">
          <mxGeometry x="240" y="780" width="60" height="30" as="geometry" />
        </mxCell>
      </root>
    </mxGraphModel>
  </diagram>
</mxfile>
